<svg xmlns="http://www.w3.org/2000/svg" width="30" height="30"><path fill="none" stroke="#000" stroke-width="2" stroke-linecap="round" stroke-linejoin="round" d="M6.25 6.25C6.25 5.56 6.81 5 7.5 5H10c.69 0 1.25.56 1.25 1.25v17.5c0 .69-.56 1.25-1.25 1.25H7.5c-.69 0-1.25-.56-1.25-1.25V6.25ZM11.25 6.25c0-.69.56-1.25 1.25-1.25H15c.69 0 1.25.56 1.25 1.25v17.5c0 .69-.56 1.25-1.25 1.25h-2.5c-.69 0-1.25-.56-1.25-1.25V6.25ZM6.25 10h5M11.25 20h5"/><path fill="none" stroke="#000" stroke-width="2" stroke-linecap="round" stroke-linejoin="round" d="m17.254 5.7 2.73-.662c.702-.17 1.416.237 1.602.915l4.619 16.772a1.275 1.275 0 0 1-.793 1.524l-.166.051-2.73.663c-.702.168-1.416-.238-1.602-.915L16.295 7.275a1.275 1.275 0 0 1 .792-1.524l.167-.051h0ZM17.5 11.25l5-1.25M20 20l4.904-1.225"/></svg>